<?xml version="1.0" encoding="UTF-8" standalone="no"?>
<!-- Created with Inkscape (http://www.inkscape.org/) -->

<svg
   width="103.50731mm"
   height="21.46401mm"
   viewBox="0 0 103.50731 21.46401"
   version="1.1"
   id="svg5"
   inkscape:version="1.2.1 (9c6d41e410, 2022-07-14)"
   sodipodi:docname="logo.svg"
   xmlns:inkscape="http://www.inkscape.org/namespaces/inkscape"
   xmlns:sodipodi="http://sodipodi.sourceforge.net/DTD/sodipodi-0.dtd"
   xmlns="http://www.w3.org/2000/svg"
   xmlns:svg="http://www.w3.org/2000/svg">
  <sodipodi:namedview
     id="namedview7"
     pagecolor="#ffffff"
     bordercolor="#999999"
     borderopacity="1"
     inkscape:showpageshadow="0"
     inkscape:pageopacity="0"
     inkscape:pagecheckerboard="0"
     inkscape:deskcolor="#d1d1d1"
     inkscape:document-units="mm"
     showgrid="false"
     showguides="false"
     inkscape:zoom="2"
     inkscape:cx="228"
     inkscape:cy="11"
     inkscape:window-width="1280"
     inkscape:window-height="971"
     inkscape:window-x="0"
     inkscape:window-y="0"
     inkscape:window-maximized="1"
     inkscape:current-layer="layer1" />
  <defs
     id="defs2" />
  <g
     inkscape:label="Layer 1"
     inkscape:groupmode="layer"
     id="layer1"
     transform="translate(-40.095273,-31.702317)">
    <path
       d="m 51.251875,42.241233 h -1.819013 q -0.01102,-1.940279 -1.675696,-2.645836 -0.837848,-0.363802 -2.006425,-0.363802 -1.807988,0 -2.723007,0.97014 l -0.01102,0.01102 q -0.595313,0.628386 -0.595313,1.510332 0,1.003212 0.782726,1.53238 0.551216,0.374826 1.664672,0.672483 l 3.704171,1.014237 q 2.149741,0.573265 2.866322,2.193839 0.297657,0.683508 0.297657,1.510332 0,1.433161 -0.881946,2.623787 -0.330729,0.440973 -0.738629,0.760678 -1.466234,1.135504 -4.156167,1.135504 -3.329344,0 -4.894797,-1.995401 -0.05512,-0.06615 -0.09922,-0.121267 -0.771702,-1.058335 -0.859897,-2.645836 -0.01102,-0.198438 -0.01102,-0.4079 h 1.785939 q -0.02205,1.322918 0.782727,2.259985 1.014237,1.245748 3.395489,1.245748 1.841061,0 2.734031,-0.606338 0.749653,-0.540191 0.981164,-1.499307 0.07717,-0.286632 0.07717,-0.573264 0,-1.30087 -1.543404,-1.995402 -0.496094,-0.220486 -1.190626,-0.407899 l -3.660073,-0.97014 q -2.91042,-0.73863 -2.91042,-3.439587 0,-2.193839 1.653648,-3.373441 1.378039,-0.992189 3.593927,-0.992189 3.175003,0 4.564067,1.796964 l 0.01102,0.01102 q 0.859897,1.113456 0.881946,2.789152 z"
       style="font-size:22.5778px;line-height:1;font-family:Likhan;-inkscape-font-specification:Likhan;fill:#3366cc;stroke-width:0.264583"
       id="path324" />
    <path
       d="m 61.978535,47.54393 h -7.860338 q 0.02205,1.344966 0.451997,2.105644 0.0441,0.08819 0.09922,0.165365 0.826824,1.256772 2.315107,1.367015 0.121267,0.01103 0.253559,0.01103 2.072572,0 2.811201,-2.138718 H 61.736 q -0.385851,2.149742 -2.083596,3.097833 -1.058334,0.606338 -2.480471,0.606338 -2.392277,0 -3.693146,-1.719794 -1.135505,-1.488283 -1.135505,-3.913632 0,-2.778128 1.477259,-4.36563 1.311894,-1.411112 3.406514,-1.411112 1.973352,0 3.285246,1.256772 0.672483,0.650435 1.025262,1.543404 0.440972,1.135505 0.440972,3.39549 z m -7.838289,-1.37804 h 5.997228 q 0.01103,-0.05512 0.01103,-0.132292 0,-1.378039 -0.926043,-2.304082 -0.837848,-0.826824 -2.006426,-0.826824 -1.521355,0 -2.381252,1.201651 -0.595313,0.837848 -0.694532,2.061547 z"
       style="font-size:22.5778px;line-height:1;font-family:Likhan;-inkscape-font-specification:Likhan;fill:#3366cc;stroke-width:0.264583"
       id="path326" />
    <path
       d="m 62.529751,41.701042 h 1.565453 v 1.499307 q 0.926042,-1.311894 2.072571,-1.653647 0.529168,-0.154341 1.201651,-0.154341 1.620574,0 2.458423,1.025262 0.15434,0.187413 0.297656,0.418924 0.05512,0.08819 0.09922,0.187413 0.948091,-1.157553 1.973353,-1.466234 0.540191,-0.165365 1.289845,-0.165365 2.204863,0 2.866322,1.598526 v 0.01102 q 0.242535,0.584289 0.242535,1.355991 v 7.99263 h -1.719793 v -7.331171 q 0,-1.444185 -1.014238,-1.929255 -0.407899,-0.198438 -0.948091,-0.198438 -1.091407,0 -1.830036,0.881946 -0.672484,0.804775 -0.672484,1.896182 v 6.680736 h -1.708769 v -7.331171 q 0,-1.576477 -1.157553,-1.995401 -0.363803,-0.132292 -0.826824,-0.132292 -1.080383,0 -1.830036,0.881946 -0.661459,0.804775 -0.661459,1.896182 v 6.680736 h -1.697745 z"
       style="font-size:22.5778px;line-height:1;font-family:Likhan;-inkscape-font-specification:Likhan;fill:#3366cc;stroke-width:0.264583"
       id="path328" />
    <path
       d="m 86.68403,52.262337 h -1.521356 v -1.488282 q -0.959115,1.367015 -2.127693,1.752866 -0.617362,0.198438 -1.433161,0.198438 -1.86311,0 -2.778128,-1.102432 -0.606337,-0.738629 -0.606337,-1.807988 v -8.202092 h 1.697744 v 7.540633 q 0,1.300869 0.981165,1.830037 0,0 0,0.01102 0.507118,0.264584 1.190626,0.264584 1.488283,0 2.293058,-1.234724 0.617361,-0.948091 0.617361,-2.370228 v -6.041326 h 1.686721 z"
       style="font-size:22.5778px;line-height:1;font-family:Likhan;-inkscape-font-specification:Likhan;fill:#3366cc;stroke-width:0.264583"
       id="path330" />
    <path
       d="m 97.884733,51.303222 v 1.267796 q -0.661459,0.187414 -1.179602,0.187414 -1.289845,0 -1.60955,-0.97014 -0.08819,-0.264584 -0.121268,-0.595313 -1.466234,1.322918 -2.943492,1.521355 -0.33073,0.0441 -0.683508,0.0441 -1.929255,0 -2.866322,-1.190627 -0.628386,-0.79375 -0.628386,-1.951304 0,-2.09462 1.852085,-2.844273 0.661459,-0.25356 1.830036,-0.429949 0.540192,-0.08819 1.598526,-0.23151 1.322918,-0.154341 1.631599,-0.606338 0.143316,-0.220486 0.143316,-0.56224 v -0.451997 q 0,-1.102432 -1.256772,-1.45521 -0.48507,-0.132292 -1.12448,-0.132292 -1.918231,0 -2.370228,1.256773 0,0.02205 -0.01103,0.0441 -0.08819,0.264583 -0.121267,0.584289 h -1.708769 q 0.05512,-1.311894 0.595313,-2.028475 0.06615,-0.07717 0.132292,-0.165364 0.937067,-1.036286 2.877346,-1.212675 0.33073,-0.03307 0.672484,-0.03307 3.130906,0 3.814413,1.830036 0.176389,0.474046 0.176389,1.058335 v 6.272836 q 0,0.738629 0.749654,0.826824 0.07717,0 0.165365,0 0.187413,0 0.385851,-0.03307 z m -2.976566,-2.359204 v -1.907207 q -0.56224,0.264584 -1.598526,0.418924 -0.363802,0.05512 -1.146529,0.165365 -1.863109,0.286632 -2.337155,1.102432 -0.209462,0.352778 -0.209462,0.859896 0,1.102432 1.003213,1.510332 0.474046,0.198438 1.102432,0.198438 1.444185,0 2.513544,-0.97014 0.573264,-0.551216 0.650435,-1.091408 0.02205,-0.132291 0.02205,-0.286632 z"
       style="font-size:22.5778px;line-height:1;font-family:Likhan;-inkscape-font-specification:Likhan;fill:#3366cc;stroke-width:0.264583"
       id="path332" />
    <path
       d="m 104.21269,37.996873 v 14.728486 h -1.89618 V 37.996873 Z"
       style="font-size:22.5778px;line-height:1;font-family:Likhan;-inkscape-font-specification:Likhan;fill:#669900;stroke-width:0.264583"
       id="path334"
       sodipodi:nodetypes="ccccc" />
    <path
       d="m 96.303657,36.736685 c 0,0 45.067983,-0.831826 44.070343,-1.017426 -29.57061,-5.501272 -67.385622,0.678284 -100.020098,1.017426 v -1.89618 C 158.28703,27.530548 143.69793,35.213697 142.27067,35.719259 120.96566,43.265878 96.303657,34.840505 96.303657,34.840505 Z"
       style="font-size:22.5778px;line-height:1;font-family:Likhan;-inkscape-font-specification:Likhan;fill:#669900;stroke-width:0.264583"
       id="path334-3"
       sodipodi:nodetypes="csccscc" />
    <path
       d="m 110.00046,41.701042 h 1.56545 v 1.929255 q 1.01424,-1.642623 1.98438,-2.050523 0.42995,-0.187413 0.92604,-0.187413 0.25356,0 0.65043,0.05512 V 43.1783 q -1.33394,0.03307 -1.9513,0.352779 -0.13229,0.07717 -0.27561,0.176389 -1.19062,0.859896 -1.19062,3.108857 v 5.534207 h -1.70877 z"
       style="font-size:22.5778px;line-height:1;font-family:Likhan;-inkscape-font-specification:Likhan;fill:#669900;stroke-width:0.264583"
       id="path336" />
    <path
       d="m 125.0707,51.303222 v 1.267796 q -0.66146,0.187414 -1.1796,0.187414 -1.28985,0 -1.60955,-0.97014 -0.0882,-0.264584 -0.12127,-0.595313 -1.46623,1.322918 -2.94349,1.521355 -0.33073,0.0441 -0.68351,0.0441 -1.92926,0 -2.86632,-1.190627 -0.62839,-0.79375 -0.62839,-1.951304 0,-2.09462 1.85209,-2.844273 0.66146,-0.25356 1.83003,-0.429949 0.54019,-0.08819 1.59853,-0.23151 1.32292,-0.154341 1.6316,-0.606338 0.14331,-0.220486 0.14331,-0.56224 v -0.451997 q 0,-1.102432 -1.25677,-1.45521 -0.48507,-0.132292 -1.12448,-0.132292 -1.91823,0 -2.37023,1.256773 0,0.02205 -0.011,0.0441 -0.0882,0.264583 -0.12127,0.584289 h -1.70877 q 0.0551,-1.311894 0.59532,-2.028475 0.0661,-0.07717 0.13229,-0.165364 0.93706,-1.036286 2.87734,-1.212675 0.33073,-0.03307 0.67249,-0.03307 3.1309,0 3.81441,1.830036 0.17639,0.474046 0.17639,1.058335 v 6.272836 q 0,0.738629 0.74965,0.826824 0.0772,0 0.16537,0 0.18741,0 0.38585,-0.03307 z m -2.97657,-2.359204 v -1.907207 q -0.56224,0.264584 -1.59852,0.418924 -0.3638,0.05512 -1.14653,0.165365 -1.86311,0.286632 -2.33716,1.102432 -0.20946,0.352778 -0.20946,0.859896 0,1.102432 1.00321,1.510332 0.47405,0.198438 1.10244,0.198438 1.44418,0 2.51354,-0.97014 0.57326,-0.551216 0.65044,-1.091408 0.022,-0.132291 0.022,-0.286632 z"
       style="font-size:22.5778px;line-height:1;font-family:Likhan;-inkscape-font-specification:Likhan;fill:#669900;stroke-width:0.264583"
       id="path338" />
    <path
       d="m 133.97835,45.217799 h -1.70877 q -0.23151,-1.675696 -1.53238,-2.149742 -0.452,-0.165365 -0.99219,-0.165365 -1.65365,0 -2.42535,1.565453 0,0.01103 -0.011,0.01103 -0.50712,1.069359 -0.50712,2.667884 0,2.491496 1.30087,3.505733 0.69453,0.540192 1.69774,0.540192 2.16077,0 2.59072,-2.546617 h 1.69774 q -0.17639,2.370228 -1.79696,3.428562 -1.04731,0.683508 -2.54662,0.683508 -2.25999,0 -3.53881,-1.653648 -1.16857,-1.499307 -1.16857,-3.95773 0,-2.8112 1.45521,-4.409726 1.26779,-1.389064 3.28524,-1.389064 1.84106,0 3.03169,1.091407 0.25356,0.231511 0.452,0.496094 0.60633,0.89297 0.71658,2.282034 z"
       style="font-size:22.5778px;line-height:1;font-family:Likhan;-inkscape-font-specification:Likhan;fill:#669900;stroke-width:0.264583"
       id="path340" />
    <path
       d="m 136.26038,37.908677 v 8.687162 l 4.51997,-4.51997 h 2.17179 l -3.70417,3.693146 4.35461,6.956344 h -2.10565 l -3.5829,-5.765718 -1.65365,1.620575 v 4.145143 h -1.67569 V 37.908677 Z"
       style="font-size:22.5778px;line-height:1;font-family:Likhan;-inkscape-font-specification:Likhan;fill:#669900;stroke-width:0.264583"
       id="path342" />
  </g>
</svg>
